# xmcd
#
# Track frame offsets: 
#        150
#        21932
#        49840
#        76100
#        97457
#        123680
#        141605
#
# Disc length: 2167 seconds
#
# Revision: 1
# Processed by: cddbd v1.5.2PL0 Copyright (c) Steve Scherf et al.
# Submitted via: ExactAudioCopy v0.99pb4
#
DISCID=67087507
DTITLE=Etta Jones - My Mother's Eyes
DYEAR=1997
DGENRE=Vocal Jazz
TTITLE0=The Way You Look Tonight
TTITLE1=Don't Misunderstand
TTITLE2=Be My Love
TTITLE3=You Do Something To Me
TTITLE4=My Mother's Eyes
TTITLE5=This Girl's In Love With You
TTITLE6=Gloomy Sunday
EXTD=YEAR: 1997
EXTT0=
EXTT1=
EXTT2=
EXTT3=
EXTT4=
EXTT5=
EXTT6=
PLAYORDER=
